<svg xmlns="http://www.w3.org/2000/svg" viewBox="0 0 1600 900" role="img" aria-label="Plumbing dispatch office background">
  <defs><linearGradient id="g" x1="0" x2="1" y1="0" y2="1"><stop stop-color="#171613"/><stop offset=".48" stop-color="#2b2119"/><stop offset="1" stop-color="#5a321d"/></linearGradient><radialGradient id="r" cx="70%" cy="24%" r="60%"><stop stop-color="#fb923c" stop-opacity=".34"/><stop offset="1" stop-color="#fb923c" stop-opacity="0"/></radialGradient></defs>
  <rect width="1600" height="900" fill="url(#g)"/><rect width="1600" height="900" fill="url(#r)"/>
  <g opacity=".16" stroke="#fff8ea" stroke-width="2"><path d="M0 650h1600M0 760h1600M230 0v900M530 0v900M910 0v900M1280 0v900"/><path d="M120 630h1360v180H120z" fill="none"/></g>
  <g transform="translate(170 165)"><rect width="470" height="310" rx="18" fill="#fff8ea" opacity=".08"/><rect x="34" y="38" width="402" height="38" rx="8" fill="#fff8ea" opacity=".18"/><rect x="34" y="104" width="170" height="132" rx="10" fill="#fb923c" opacity=".38"/><rect x="230" y="104" width="206" height="22" rx="6" fill="#fff8ea" opacity=".24"/><rect x="230" y="148" width="160" height="22" rx="6" fill="#fff8ea" opacity=".16"/><rect x="230" y="192" width="190" height="22" rx="6" fill="#fff8ea" opacity=".12"/></g>
  <g transform="translate(930 150)" opacity=".92"><rect x="0" y="120" width="360" height="190" rx="26" fill="#fff8ea" opacity=".12"/><circle cx="90" cy="320" r="38" fill="#191815" stroke="#fff8ea" stroke-width="14" opacity=".75"/><circle cx="280" cy="320" r="38" fill="#191815" stroke="#fff8ea" stroke-width="14" opacity=".75"/><path d="M50 120h210l70 74v76H50z" fill="#fff8ea" opacity=".16"/><path d="M278 138l45 54h-93v-54z" fill="#fb923c" opacity=".58"/><rect x="72" y="154" width="118" height="44" rx="8" fill="#fff8ea" opacity=".18"/></g>
  <g transform="translate(900 535)" stroke="#fb923c" stroke-width="18" stroke-linecap="round" fill="none" opacity=".65"><path d="M0 160h150c80 0 80-90 160-90h220"/><path d="M530 70l52-52M530 70l52 52"/></g>
</svg>
